<?xml version="1.0" encoding="utf-8"?>
<!-- Generator: Adobe Illustrator 19.2.1, SVG Export Plug-In . SVG Version: 6.00 Build 0)  -->
<svg version="1.1" xmlns="http://www.w3.org/2000/svg" xmlns:xlink="http://www.w3.org/1999/xlink" x="0px" y="0px"
	 viewBox="0 0 1536 2048" style="enable-background:new 0 0 1536 2048;" xml:space="preserve">
<style type="text/css">
	.st0{display:none;}
	.st1{opacity:0.61;}
	.st2{opacity:0.4;fill:url(#SVGID_1_);}
	.st3{fill:url(#SVGID_2_);}
	.st4{opacity:0.69;fill:#EFEDED;}
	.st5{fill:#C1BFBF;}
</style>
<g id="Calque_12" class="st0">
</g>
<g id="Calque_11">
</g>
<g id="Calque_3">
</g>
<g id="Calque_5">
</g>
<g id="Calque_6">
</g>
<g id="Calque_7">
</g>
<g id="teteclou">
</g>
<g id="Calque_10">
</g>
<g id="Calque_8">
</g>
<g id="Calque_9">
	<g>
		<g class="st1">
			<image style="overflow:visible;" width="494" height="182" xlink:href="552FDE90.png"  transform="matrix(1 0 0 1 269 765)">
			</image>
		</g>
		<g>
			
				<image style="overflow:visible;opacity:0.2;" width="578" height="283" xlink:href="552FDE91.png"  transform="matrix(1 0 0 1 68 657)">
			</image>
			<g>
				<image style="overflow:visible;" width="532" height="245" xlink:href="552FDE97.png"  transform="matrix(1 0 0 1 56 657)">
				</image>
			</g>
		</g>
		<linearGradient id="SVGID_1_" gradientUnits="userSpaceOnUse" x1="103.0856" y1="760.2819" x2="315.5708" y2="760.2819">
			<stop  offset="0" style="stop-color:#FFFFFF"/>
			<stop  offset="1" style="stop-color:#000000"/>
		</linearGradient>
		<path class="st2" d="M376.5,796.7c0,0-85-1.6-215.4-49.6s0-6.5,0-6.5s155.8,50.5,196.2,48.8L376.5,796.7z"/>
		
			<linearGradient id="SVGID_2_" gradientUnits="userSpaceOnUse" x1="54.8562" y1="666.9973" x2="126.2725" y2="666.9973" gradientTransform="matrix(0.9978 -6.609241e-002 6.609241e-002 0.9978 -61.5323 25.5519)">
			<stop  offset="0.2244" style="stop-color:#4D4D4D"/>
			<stop  offset="0.794" style="stop-color:#FFFFFF"/>
		</linearGradient>
		<path class="st3" d="M89,638.8c0,0-44.9,10.3-49.2,49.1c0,0-7.5,22.4,10.1,43.2c0,0,21.2,6.4,43.2-30.3
			C114.9,664.5,109.3,642.9,89,638.8z"/>
		<path class="st4" d="M59.6,723.6c0,0,33.4-10.8,32.9-58.2c0,0,0.8-15-8-22.5S88.8,708.8,59.6,723.6z"/>
		<g>
			
				<image style="overflow:visible;opacity:0.2;" width="527" height="231" xlink:href="552FDE92.png"  transform="matrix(1 0 0 1 103 680)">
			</image>
			<g>
				<image style="overflow:visible;" width="490" height="199" xlink:href="552FDE93.png"  transform="matrix(1 0 0 1 92 680)">
				</image>
			</g>
		</g>
		<g>
			
				<image style="overflow:visible;opacity:0.2;" width="560" height="234" xlink:href="552FDE9E.png"  transform="matrix(1 0 0 1 78 707)">
			</image>
			<g>
				<image style="overflow:visible;" width="516" height="197" xlink:href="552FDE9F.png"  transform="matrix(1 0 0 1 67 707)">
				</image>
			</g>
		</g>
		<g>
			<path class="st5" d="M340.2,925.8c0,2.7-0.8,5.6-2.4,8.5c-1.6,2.9-4.2,5.6-7.7,8.1c-1.1,0.8-2.4,1.6-4,2.5
				c-1.6,0.9-3.3,1.8-5.1,2.7c-1.8,0.9-3.8,1.8-5.8,2.7c-2,0.9-4.1,1.6-6.2,2.3c-2.1,0.6-4.1,1.2-6.1,1.6c-2,0.4-3.8,0.6-5.6,0.6
				c-0.9,0-1.6-0.1-2.3-0.2c-0.6-0.1-1.2-0.4-1.7-0.7c-0.5-0.3-1-0.8-1.5-1.4c-0.5-0.6-1-1.4-1.6-2.3c-0.9,0.7-1.9,1.2-2.9,1.5
				c-1,0.3-2,0.5-3.1,0.5h-1.6c-0.3,0-0.6-0.1-0.9-0.3c-0.3-0.2-0.5-0.5-0.7-0.8c-0.2-0.3-0.4-0.6-0.5-1c-0.1-0.4-0.2-0.7-0.2-1.1
				c0-1.9,0.3-3.8,0.8-5.6c0.6-1.8,1.2-3.5,1.9-5.3c1.1-3.2,2.2-6.6,3.3-10.2c1.1-3.6,2.2-7.1,3.2-10.7c1-3.6,2-7.1,2.9-10.6
				c0.9-3.5,1.8-6.8,2.6-9.9l1.6-6.6c0-0.1,0-0.4-0.1-1c0-0.5-0.1-1.1-0.1-1.7c-0.1-0.6-0.1-1.2-0.1-1.7l-0.1-0.7l0.3-1l-0.1,0.1
				c0.2-0.7,0.5-1.5,0.8-2.3c0.3-0.9,0.8-1.7,1.3-2.5c0.5-0.8,1-1.4,1.6-1.9c0.6-0.5,1.2-0.8,1.9-0.8c0.6,0,1.5,0,2.5,0.1
				c1,0.1,1.9,0.1,2.7,0.1c0.4,0,0.8,0,1.1-0.1c0.4,0,0.8-0.1,1.4-0.3c0.6-0.2,1.3-0.4,2.2-0.7c0.9-0.3,2.1-0.7,3.5-1.2
				c2.2-0.8,4.2-1.4,6-1.9c1.8-0.5,3.5-0.9,5.1-1.3c1.6-0.3,3.2-0.6,4.7-0.7c1.5-0.2,3.1-0.2,4.7-0.2c2,0,4,0.2,5.9,0.6
				c1.9,0.4,3.6,1,5,1.9c1.5,0.9,2.6,2,3.5,3.4c0.9,1.4,1.3,3.1,1.3,5.1c0,3.4-0.9,6.4-2.7,9.1c-1.8,2.7-4.3,5.2-7.6,7.5
				c-3.3,2.3-7.2,4.5-11.8,6.5c-4.6,2-9.7,4-15.3,5.9c4.5,0.7,8.4,1.5,11.6,2.4c3.3,0.9,6,2,8.1,3.3c2.1,1.3,3.7,2.7,4.7,4.3
				S340.2,923.7,340.2,925.8z M320.8,920.5c-0.4-0.1-1.1-0.2-2.1-0.4c-1-0.2-2.2-0.4-3.5-0.6c-1.4-0.2-2.8-0.5-4.4-0.7
				c-1.6-0.2-3-0.5-4.5-0.7c-1.4-0.2-2.7-0.5-3.9-0.7c-1.2-0.2-2-0.4-2.5-0.6c-1.4,4.7-2.7,9.2-3.8,13.5c-1.1,4.3-2.2,8.6-3.3,12.9
				l3.8,0.4c0.9,0.1,1.6,0.1,2.3,0.2c0.7,0.1,1.1,0.1,1.2,0.1c1.5-0.2,3.2-0.4,5-0.9c1.8-0.4,3.7-1,5.7-1.7c2-0.7,4-1.4,6-2.3
				c2-0.9,4-1.9,5.9-2.9c0.7-0.5,1.5-1,2.3-1.7c0.8-0.6,1.5-1.4,2.2-2.1c0.6-0.8,1.2-1.6,1.6-2.5c0.4-0.9,0.6-1.8,0.6-2.7
				c0-1.5-0.8-2.8-2.4-4C325.4,922,323.3,921.2,320.8,920.5z M302.7,907.3c2.1-0.7,4.4-1.5,6.7-2.4c2.4-0.9,4.8-2,7.3-3.1
				c2.5-1.1,5-2.3,7.6-3.5c2.6-1.2,5.1-2.5,7.7-3.7H332c0.9-0.5,1.8-1.1,2.7-1.8c0.9-0.7,1.7-1.5,2.4-2.3c0.7-0.8,1.3-1.7,1.7-2.6
				c0.4-0.9,0.7-1.8,0.7-2.7c0-0.6-0.1-1.1-0.4-1.7c-0.3-0.6-0.7-1.1-1.3-1.5s-1.3-0.8-2.3-1.1c-0.9-0.3-2.1-0.4-3.5-0.4
				c-1.9,0-4.1,0.2-6.5,0.7c-2.4,0.5-4.7,1.1-7,1.8c-2.2,0.7-4.2,1.5-6,2.4c-1.8,0.9-2.9,1.7-3.5,2.5c-0.1,0.2-0.3,0.6-0.5,1.3
				c-0.2,0.6-0.4,1.4-0.7,2.1c-0.3,0.8-0.5,1.5-0.8,2.3c-0.3,0.7-0.6,1.3-0.8,1.6c-0.1,0.4-0.2,1-0.5,1.7c-0.2,0.8-0.5,1.7-0.8,2.8
				c-0.3,1.1-0.7,2.2-1.1,3.5C303.5,904.5,303.1,905.9,302.7,907.3z"/>
			<path class="st5" d="M352.7,945.5c0.5-2.7,1.1-5.6,1.7-8.8c0.6-3.2,1.3-6.4,2-9.7c0.7-3.3,1.4-6.5,2-9.7c0.6-3.2,1.2-6.1,1.7-8.7
				c0-0.4-0.1-0.7-0.1-1c0-0.3,0-0.6,0-0.9c0-1.2,0.1-2.4,0.2-3.5c0.2-1.2,0.4-2.3,0.6-3.3c0.4-1.4,0.9-2.4,1.4-2.9
				c0.5-0.5,1.3-0.8,2.5-0.8c1.1,0,2,0.2,2.7,0.7c0.7,0.4,1.2,1,1.6,1.7c0.4,0.7,0.6,1.6,0.7,2.5c0.1,0.9,0.2,1.9,0.2,2.9
				c0,0.5,0,1.1-0.1,1.8c0,0.6-0.1,1.2-0.1,1.5c1.1-1.1,2.2-2.2,3.4-3.4c1.2-1.2,2.5-2.2,3.8-3.1c1.4-0.9,2.8-1.7,4.3-2.3
				c1.5-0.6,3.1-0.9,4.7-0.9c0.6,0,1.3,0.1,1.9,0.2c0.6,0.1,1.3,0.3,1.9,0.5c0.8,0.2,1.6,0.4,2.4,0.8c0.8,0.3,1.6,0.8,2.4,1.3
				c1.3,1,2.3,2.1,3.2,3.6c0.9,1.4,1.3,2.9,1.3,4.4c0,0.6-0.1,1.2-0.3,1.9c-0.2,0.7-0.5,1.3-0.9,1.8c-0.4,0.6-0.9,1-1.4,1.4
				c-0.5,0.4-1.1,0.5-1.8,0.5c-0.6,0-1.4-0.2-2.4-0.5c-0.9-0.3-1.7-0.8-2.3-1.3c-0.3-0.2-0.5-0.6-0.8-1c-0.3-0.4-0.6-0.8-0.8-1.3
				c-0.2-0.4-0.5-0.8-0.7-1.2c-0.2-0.4-0.4-0.6-0.5-0.7c-0.2,0-0.4-0.1-0.6-0.1c-0.2,0-0.4,0-0.6,0c-1.9,0-3.8,0.5-5.5,1.5
				c-1.8,1-3.4,2.2-4.9,3.6c-1.5,1.4-2.9,3-4.2,4.6c-1.3,1.6-2.4,3.1-3.3,4.4c-0.8,3.1-1.6,6.4-2.5,9.9c-0.9,3.5-1.9,7.1-2.8,10.9
				v1.4c0,1.1,0,2.3-0.1,3.5c-0.1,1.2-0.3,2.2-0.7,3.1c-0.4,0.6-1,1.1-1.8,1.5c-0.8,0.4-1.7,0.6-2.7,0.6c-1.6,0-2.8-0.5-3.6-1.6
				c-0.8-1-1.2-2.3-1.2-3.7C352.5,946.9,352.6,946.2,352.7,945.5z"/>
			<path class="st5" d="M401.3,940.9c0.6-2.2,1.3-4.8,2.1-7.7c0.8-2.9,1.6-6,2.5-9.3c0.9-3.3,1.8-6.6,2.7-10.1s1.8-6.8,2.6-10
				c0-0.2,0.2-0.4,0.4-0.8c0.2-0.4,0.6-0.7,1-1.1c0.4-0.4,1-0.7,1.6-0.9c0.6-0.3,1.4-0.4,2.3-0.4c0.6,0,1.3,0.1,1.9,0.2
				c0.6,0.1,1.2,0.3,1.6,0.6c0.5,0.3,0.9,0.6,1.1,1.1c0.3,0.4,0.4,0.9,0.4,1.5c0,0.1,0,0.2,0,0.4c0,0.1,0,0.3-0.1,0.4l-1.6,6.1
				c-1.8,6.8-3.6,13.6-5.5,20.4c-1.8,6.8-3.6,13.7-5.4,20.5c-0.1,0.2-0.2,0.5-0.3,0.9c-0.2,0.3-0.4,0.7-0.6,1
				c-0.3,0.3-0.6,0.6-1,0.9c-0.4,0.2-0.8,0.3-1.4,0.3c-1,0-1.9-0.2-2.6-0.6c-0.8-0.4-1.4-0.9-1.9-1.5c-0.5-0.6-0.9-1.3-1.2-2
				c-0.3-0.7-0.4-1.4-0.4-2.1c0-0.2,0-0.4,0-0.5c0-0.2,0-0.3,0.1-0.5L401.3,940.9z M416.2,881.8c0.2-0.8,0.5-1.8,1-2.9
				c0.5-1.1,1.4-2.2,2.6-3.1c0.6-0.3,1.4-0.7,2.2-0.9c0.9-0.3,1.5-0.4,1.9-0.4c0.4,0,0.8,0.1,1.2,0.4c0.4,0.3,0.8,0.6,1.1,0.9
				c0.4,0.4,0.7,0.8,1.1,1.3c1,0.1,1.6,0.4,1.9,1c0.3,0.6,0.4,1.3,0.4,2.2c0,0.6-0.1,1.2-0.2,1.7c-0.1,0.5-0.2,0.9-0.3,1.2
				c-0.2,0.8-0.7,1.5-1.3,2.2c-0.6,0.7-1.4,1.2-2.2,1.7c-0.8,0.5-1.7,0.8-2.6,1.1c-0.9,0.3-1.7,0.4-2.4,0.4c-0.9,0-1.6-0.2-2-0.5
				c-0.5-0.3-1.1-1-1.8-1.9c-0.4-0.6-0.7-1-0.7-1.3c-0.1-0.3-0.1-0.6-0.1-0.8c0-0.4,0-0.8,0.1-1.1
				C416.1,882.4,416.1,882.1,416.2,881.8z"/>
			<path class="st5" d="M431.2,929.1c0.7-2.9,1.8-6,3.2-9.2c1.4-3.2,3.2-6.3,5.2-9.3c2-3,4.3-5.8,6.9-8.3c2.6-2.5,5.4-4.6,8.4-6.2
				c1-0.5,2.1-0.9,3.3-1.2c1.2-0.3,2.4-0.4,3.6-0.4c1.3,0,2.4,0.1,3.5,0.3c1.1,0.2,2,0.6,2.8,1.1c0.8,0.5,1.4,1.2,1.9,2.1
				c0.5,0.8,0.7,1.9,0.7,3.1c0,0.9-0.1,1.8-0.4,2.8c-0.3,0.9-0.7,1.8-1.2,2.5c-0.5,0.7-1.2,1.3-2,1.8s-1.7,0.7-2.8,0.7
				c-0.8,0-1.6-0.2-2.3-0.5c-0.7-0.3-1.4-0.6-2-1c-0.3-0.2-0.7-0.4-1-0.6c-0.3-0.2-0.7-0.3-1.1-0.5c-1.5,0.7-3,1.6-4.3,2.7
				c-1.4,1.1-2.6,2.4-3.8,3.7c-1.2,1.4-2.2,2.8-3.2,4.4c-1,1.6-1.8,3.1-2.6,4.7c-0.8,1.6-1.4,3.1-2,4.6c-0.6,1.5-1,2.9-1.3,4.1
				c-0.3,0.9-0.5,2-0.7,3.1c-0.2,1.2-0.3,2.3-0.3,3.4c0,0.8,0.1,1.5,0.2,2.2c0.1,0.7,0.4,1.3,0.7,1.8c0.3,0.5,0.8,1,1.4,1.3
				c0.6,0.3,1.3,0.5,2.1,0.5c1.3,0,2.7-0.2,4-0.5c1.3-0.3,2.6-0.8,3.9-1.3c1.3-0.5,2.5-1.2,3.7-1.9c1.2-0.7,2.4-1.4,3.5-2.1
				c0.7-0.5,1.4-0.9,2.2-1.4c0.7-0.5,1.4-0.9,2.1-1.3c0.6-0.4,1.2-0.7,1.8-0.9c0.6-0.2,1-0.4,1.5-0.4c0.6,0,1.1,0.1,1.6,0.4
				c0.5,0.3,0.7,0.8,0.7,1.5c0,0.5-0.1,1-0.3,1.7c-0.5,1.5-1.3,2.8-2.2,4c-0.9,1.2-1.9,2.2-3.1,3.2c-1.1,0.9-2.3,1.8-3.6,2.5
				c-1.3,0.7-2.5,1.4-3.8,2c-2.4,1.3-4.8,2.2-7.2,2.8c-2.4,0.6-4.4,0.9-6.1,0.9c-0.5,0-1.2-0.1-1.9-0.2c-0.7-0.1-1.4-0.3-1.9-0.5
				c-3.1-1.3-5.3-3.1-6.7-5.4c-1.4-2.2-2.1-4.9-2.1-8c0-1.3,0.1-2.7,0.3-4.2C430.5,932.2,430.8,930.7,431.2,929.1z"/>
			<path class="st5" d="M481.3,929.5c0.6-2.3,1.5-4.8,2.7-7.4c1.2-2.6,2.8-5.2,4.7-7.9c1.9-2.7,4.3-5.3,7-7.8
				c2.7-2.6,5.9-4.9,9.5-7.1c0.6-0.3,1.4-0.7,2.6-1.1c1.2-0.4,2.4-0.6,3.7-0.7c1.5-1.6,3.5-2.4,6-2.4c3,0,5.5,0.8,7.5,2.3
				c2,1.5,3.7,3.6,5.1,6.1c0.4,0.8,0.8,1.7,1.2,2.5c0.4,0.8,0.7,1.6,0.9,2.5c0.2,0.9,0.4,1.9,0.6,2.9c0.2,1,0.2,2.2,0.2,3.5
				c0,3-0.5,6.1-1.4,9.2c-1,3.1-2.3,6.2-4.1,9.1c-1.8,3-3.9,5.8-6.4,8.5c-2.5,2.7-5.3,5.2-8.3,7.3c-2.1,1.5-4.3,2.6-6.8,3.5
				c-2.5,0.8-5.3,1.2-8.4,1.2c-2.9,0-5.5-0.4-7.6-1.2c-2.2-0.8-3.9-1.9-5.4-3.3c-1.4-1.4-2.5-3.2-3.2-5.2c-0.7-2-1.1-4.3-1.1-6.7
				C480.3,934.8,480.6,932.3,481.3,929.5z M490.8,930.3c-0.2,0.9-0.4,1.7-0.5,2.5c-0.1,0.8-0.1,1.5-0.1,2.3c0,1.3,0.2,2.4,0.5,3.5
				c0.3,1.1,0.8,2,1.6,2.8c0.7,0.8,1.6,1.4,2.7,1.8c1.1,0.4,2.4,0.7,4,0.7c2.9,0,5.6-0.7,8.1-2.2c2.5-1.5,4.7-3.3,6.7-5.5
				c1.9-2.2,3.6-4.6,4.9-7.1c1.3-2.5,2.2-4.9,2.8-7c0.3-1.3,0.6-2.6,0.9-3.8c0.2-1.2,0.4-2.3,0.4-3.3c0-1-0.2-1.9-0.5-2.8
				c-0.4-0.9-0.8-1.8-1.4-2.9c-0.3-0.6-0.7-1.3-1-2c-0.3-0.7-0.6-1.4-0.9-2.1c-0.3,0.5-0.6,1-1,1.4c-0.3,0.4-0.9,0.8-1.5,1.1
				c-0.7,0.3-1.6,0.6-2.8,0.9c-1.2,0.3-2.7,0.5-4.6,0.7c-1.3,0.4-2.5,1.1-3.8,1.9c-1.3,0.9-2.6,1.9-3.8,3.1
				c-1.2,1.2-2.4,2.5-3.5,3.8c-1.1,1.4-2.1,2.8-3,4.2c-0.9,1.4-1.7,2.8-2.3,4.2C491.5,927.9,491,929.1,490.8,930.3z"/>
			<path class="st5" d="M560,873.1c0.2-1.5,0.5-2.9,0.9-4.2c0.4-1.3,1-2.4,1.7-3.2c0.7-0.9,1.6-1.3,2.7-1.3c0.6,0,1.3,0.1,2,0.3
				c0.7,0.2,1.4,0.5,2.1,0.9c0.7,0.4,1.2,0.9,1.7,1.5s0.7,1.2,0.7,1.9c0,0.3-0.1,0.7-0.2,1.1c-0.1,0.4-0.2,0.8-0.3,1.2l-14.3,57.2
				c-0.6,2.3-1,4.5-1.4,6.5c-0.4,2.1-0.7,3.8-0.9,5.1v1.4c0,1.1-0.1,2.4-0.2,3.7c-0.2,1.4-0.4,2.6-0.9,3.8c-0.4,1.2-1,2.1-1.7,2.9
				c-0.7,0.8-1.7,1.2-2.9,1.2c-1,0-1.9-0.2-2.7-0.7c-0.8-0.4-1.4-1-1.9-1.7c-0.5-0.7-0.9-1.4-1.1-2.2c-0.2-0.8-0.3-1.5-0.3-2.2
				c0-0.6,0.1-1.4,0.2-2.3c0.1-0.9,0.3-1.8,0.4-2.8c0.2-1,0.4-1.9,0.5-2.9c0.2-1,0.4-1.8,0.6-2.5l14.7-58.5
				C559.7,876,559.8,874.6,560,873.1z"/>
			<path class="st5" d="M599.8,948.9c0-1.1,0.1-2.4,0.4-4c0.3-1.5,0.4-3.5,0.4-5.7c-1.3,0.9-2.6,2-4.2,3.3c-1.5,1.3-3.1,2.5-4.7,3.6
				c-1.6,1.1-3.3,2.1-4.9,2.9c-1.6,0.8-3.1,1.2-4.5,1.2c-1.1,0-2.2-0.2-3.3-0.5s-1.9-0.8-2.6-1.4c-2-1.6-3.5-3.2-4.4-4.8
				c-0.9-1.6-1.3-3.5-1.3-5.6c0-1,0.1-1.9,0.3-3c0.2-1,0.4-2.2,0.8-3.5c1.4-6,3.9-11.6,7.5-16.7c3.5-5.1,7.9-9.5,13.1-13.1
				c2-1.4,4-2.3,6.1-2.7c2-0.4,4-0.6,6-0.6c0.9,0,1.9,0.1,2.9,0.2c1.1,0.1,2.1,0.2,2.9,0.3c0.9-0.2,1.6-0.3,2.1-0.4
				c0.6-0.1,1.1-0.1,1.7-0.1c1.1,0,2.1,0.2,2.9,0.5c0.8,0.3,1.4,0.7,1.8,1.2c0.5,0.5,0.8,1.1,1,1.8c0.2,0.7,0.3,1.4,0.3,2.1
				c0,1-0.2,1.9-0.5,2.8c-0.3,0.9-0.6,1.8-0.9,2.7l-7.5,30.1c-0.2,1.6-0.3,3.1-0.4,4.5s-0.3,2.6-0.7,3.8c-0.1,0.3-0.3,0.8-0.4,1.3
				c-0.2,0.5-0.4,1-0.8,1.5c-0.4,0.5-0.9,0.9-1.4,1.2c-0.6,0.3-1.3,0.5-2.2,0.5c-1.2,0-2.1-0.1-2.8-0.2c-0.7-0.2-1.2-0.4-1.6-0.7
				c-0.4-0.3-0.6-0.6-0.7-1C599.9,949.9,599.8,949.5,599.8,948.9z M580.9,931.7c-0.2,0.5-0.3,1.3-0.5,2.3c-0.2,1-0.3,2-0.3,3
				c0,1,0.2,2,0.5,2.8c0.3,0.8,1,1.2,2,1.2c1.6,0,3.1-0.4,4.5-1.1c1.4-0.7,2.7-1.6,3.9-2.5c1.6-1.3,3.3-2.8,5-4.5
				c1.7-1.7,3.3-3.4,4.8-5.2c1.5-1.8,2.8-3.7,4-5.6c1.2-1.9,2-3.8,2.5-5.7c0.3-1.1,0.6-2.4,0.8-3.8c0.2-1.4,0.3-2.7,0.3-3.9
				c0-0.5-0.1-1-0.3-1.5c-0.2-0.5-0.7-0.7-1.3-0.7c-1.9,0-3.7,0.4-5.6,1.1c-1.9,0.7-3.7,1.7-5.5,2.9c-1.8,1.2-3.4,2.7-5,4.3
				c-1.6,1.7-3,3.4-4.3,5.3c-1.3,1.9-2.4,3.8-3.3,5.8C582.1,927.8,581.4,929.8,580.9,931.7z"/>
			<path class="st5" d="M632,977.8c-0.3,0-0.6-0.1-1-0.2c-0.4-0.1-0.7-0.3-1.1-0.6c-0.3-0.3-0.6-0.6-0.8-1.1c-0.2-0.4-0.3-1-0.3-1.6
				c0-0.4,0.1-0.9,0.2-1.3c0.3-1.3,0.6-2.3,1-3.1c0.3-0.8,0.8-1.4,1.5-2c0.6-0.5,1.5-1,2.6-1.3c1.1-0.4,2.6-0.7,4.3-1.1
				c1.1-0.2,2.2-0.5,3.2-0.8c1-0.3,1.8-0.6,2.5-1.1c1.9-1.7,3.6-3.5,4.9-5.3c1.4-1.8,2.5-3.7,3.4-5.7c0.9-2,1.7-4,2.3-6
				c0.6-2.1,1.2-4.2,1.8-6.3c0.2-0.7,0.4-1.5,0.6-2.3c0.2-0.8,0.4-1.7,0.7-2.7c-1.4,1.3-3,2.5-4.5,3.8s-3.2,2.4-4.8,3.4
				c-1.6,1-3.3,1.8-5,2.4c-1.7,0.6-3.4,0.9-5.1,0.9c-1,0-2.1-0.3-3.3-0.9c-1.2-0.6-2.4-1.4-3.5-2.4c-1.1-1-2-2.1-2.8-3.5
				c-0.8-1.3-1.1-2.7-1.1-4.1c0-0.9,0.1-1.9,0.3-3c0.2-1.1,0.4-2,0.6-2.9c0.6-2.5,1.5-5,2.7-7.3c1.2-2.4,2.6-4.6,4.1-6.7
				c1.6-2.1,3.3-4.2,5.1-6.1c1.9-1.9,3.8-3.7,5.8-5.3c2.5-2.1,5-3.5,7.5-4.5s5.2-1.4,8-1.4c1.2,0,2.3,0.1,3.4,0.2
				c1.1,0.1,2.1,0.4,3.1,0.7c1,0.4,1.9,0.9,2.7,1.6c0.8,0.7,1.6,1.6,2.3,2.8c0.2,0.3,0.3,0.6,0.4,0.9c0.1,0.4,0.1,0.7,0.1,0.9
				c0,0.3-0.1,1.1-0.3,2.3c-0.2,1.2-0.4,2.7-0.7,4.5c-0.3,1.8-0.6,3.8-1,5.9c-0.4,2.2-0.8,4.4-1.2,6.6c-0.4,2.2-0.8,4.4-1.3,6.6
				c-0.4,2.2-0.8,4.1-1.2,5.8c-0.6,3-1.5,6.1-2.4,9.3c-1,3.2-2.2,6.3-3.5,9.4c-1.4,3-3,5.9-4.9,8.6c-1.9,2.7-4,5.1-6.5,7.1
				c-2.5,2-5.3,3.7-8.4,4.9C639.4,977.2,635.9,977.8,632,977.8z M637.7,930.5c-0.1,0.5-0.2,0.9-0.3,1.4c-0.1,0.5-0.1,0.9-0.1,1.4
				c0,0.8,0.2,1.6,0.5,2.2c0.3,0.6,0.9,0.9,1.7,0.9c1.3,0,2.7-0.4,4.4-1.3c1.7-0.9,3.4-2,5.1-3.4c1.7-1.4,3.3-2.9,4.8-4.5
				c1.5-1.6,2.7-3.1,3.6-4.6c0.4-0.6,0.9-1.4,1.5-2.5c0.6-1.1,1.3-2.2,1.9-3.5c0.6-1.2,1.2-2.5,1.7-3.7c0.5-1.2,0.8-2.3,0.9-3.3
				c0-0.6-0.1-1.2-0.4-1.8c-0.3-0.6-0.5-1.3-0.7-2.3h-0.5c-0.9,0-2,0.3-3.1,0.9c-1.2,0.6-2.4,1.4-3.7,2.3c-1.3,1-2.6,2-4,3.2
				c-1.3,1.2-2.6,2.4-3.8,3.7c-1.2,1.2-2.3,2.4-3.2,3.6c-1,1.2-1.7,2.2-2.3,3.1c-0.8,1.3-1.5,2.5-2.2,3.8
				C638.6,927.3,638.1,928.8,637.7,930.5z"/>
			<path class="st5" d="M683.4,929.3c0-1.6,0.4-3,1.3-4.2s2-1.9,3.5-2.3c0.4-0.8,1.1-2,1.9-3.4c0.9-1.4,2-3,3.3-4.7
				c1.3-1.7,2.8-3.4,4.4-5.1c1.7-1.7,3.5-3.2,5.5-4.6c2-1.4,4.2-2.5,6.5-3.4c2.3-0.9,4.8-1.3,7.3-1.3c2.2,0,4.1,0.3,5.8,0.8
				c1.6,0.5,3,1.3,4.1,2.2c1.1,1,1.9,2.1,2.4,3.4c0.5,1.3,0.8,2.7,0.8,4.3c0,1.3-0.2,2.5-0.5,3.7c-0.5,2.1-1.5,4-3,5.6
				c-1.4,1.6-3.2,3-5.1,4.2c-2,1.2-4.1,2.2-6.4,3c-2.3,0.8-4.6,1.5-6.9,2c-2.3,0.5-4.5,0.9-6.7,1.2c-2.1,0.3-4,0.5-5.5,0.7
				c-0.3,0.7-0.6,1.6-0.9,2.6c-0.2,1-0.4,2.1-0.4,3.1c0,2.2,0.9,3.9,2.6,5.1c1.8,1.2,4.2,1.8,7.3,1.8c1.8,0,3.5-0.2,5.1-0.6
				c1.6-0.4,3.2-0.9,4.7-1.5c1.5-0.6,2.8-1.3,4.1-2.1c1.3-0.7,2.5-1.5,3.5-2.2c1.4-0.9,2.7-1.7,3.9-2.3c1.2-0.6,2.3-0.9,3.3-0.9
				c1,0,1.6,0.2,1.8,0.7c0.3,0.5,0.4,1,0.4,1.5c0,0.3,0,0.6,0,0.9c0,0.3,0,0.5-0.1,0.7c-0.2,1-0.6,2-1.1,3c-0.6,1-1.3,1.8-2.2,2.6
				c-4,3.1-8,5.4-12.2,6.7c-4.2,1.3-8.6,2-13.3,2c-0.9,0-2-0.1-3.2-0.2c-1.2-0.1-2.5-0.3-3.9-0.7c-1.3-0.3-2.6-0.8-3.9-1.5
				c-1.3-0.6-2.4-1.5-3.5-2.6c-1-1.1-1.8-2.4-2.5-3.9c-0.6-1.6-0.9-3.4-0.9-5.7c0-1.8,0.2-3.8,0.7-6c-0.5-0.1-1-0.3-1.4-0.8
				C683.6,930.8,683.4,930.2,683.4,929.3z M719.1,913.5c0.1-0.2,0.1-0.4,0.1-0.5c0-0.2,0-0.3,0-0.5c0-1-0.4-1.8-1.1-2.3
				c-0.8-0.5-1.7-0.8-2.7-0.8c-1.7,0-3.3,0.4-4.9,1.3c-1.6,0.9-3.1,2-4.6,3.3c-1.4,1.3-2.7,2.7-3.8,4.2c-1.1,1.5-2,2.9-2.6,4.1
				c2.7-0.2,5.3-0.6,7.5-1.1c2.3-0.5,4.3-1.2,6-1.9c1.7-0.8,3.1-1.7,4.1-2.6C718.1,915.7,718.8,914.6,719.1,913.5z"/>
		</g>
	</g>
</g>
<g id="Calque_13">
</g>
<g id="Calque_4">
</g>
</svg>
