<?xml version="1.0" encoding="utf-8"?>
<!-- Generator: Adobe Illustrator 19.2.1, SVG Export Plug-In . SVG Version: 6.00 Build 0)  -->
<svg version="1.1" id="Calque_1" xmlns="http://www.w3.org/2000/svg" xmlns:xlink="http://www.w3.org/1999/xlink" x="0px" y="0px"
	 viewBox="0 0 1024 768" style="enable-background:new 0 0 1024 768;" xml:space="preserve">
<style type="text/css">
	.st0{fill:#FFFFFF;}
</style>
<g id="Calque_1_1_">
</g>
<g id="Calque_3">
</g>
<g>
	<path class="st0" d="M158.1,405.7c0,0.1-0.1,0.2-0.2,0.4c-0.1,0.1-0.2,0.2-0.3,0.3s-0.3,0.2-0.5,0.4s-0.4,0.3-0.6,0.4
		s-0.4,0.3-0.7,0.4s-0.5,0.3-0.7,0.4s-0.5,0.3-0.7,0.4s-0.5,0.3-0.6,0.4s-0.3,0.2-0.4,0.2c-0.1,0.1-0.2,0.1-0.3,0.2
		s-0.2,0.2-0.3,0.3c-0.3,0.3-0.7,0.6-1.1,0.9c-0.2,0.2-0.4,0.2-0.7,0.2c-0.1,0-0.3,0-0.4-0.1c-0.1-0.1-0.2-0.2-0.2-0.3
		c0-0.1,0-0.1,0.1-0.2c0.1-0.1,0.2-0.2,0.3-0.3s0.2-0.2,0.3-0.2s0.2-0.2,0.3-0.2s0.3-0.2,0.4-0.3c0.2-0.1,0.4-0.2,0.5-0.3
		s0.2-0.1,0.2-0.1c0.2-0.2,0.5-0.4,0.6-0.5s0.3-0.4,0.5-0.5c0.3-0.4,0.4-0.8,0.4-1.3c0-0.1,0-0.2,0-0.3s-0.1-0.3-0.1-0.4
		s-0.1-0.2-0.2-0.3s-0.2-0.1-0.3-0.1c-0.1,0-0.2,0-0.3,0.1s-0.2,0.1-0.3,0.2s-0.2,0.2-0.3,0.3s-0.2,0.2-0.3,0.3
		c-0.2,0.2-0.4,0.4-0.6,0.7s-0.4,0.5-0.6,0.8c-0.1,0.2-0.2,0.3-0.3,0.5s-0.1,0.3-0.2,0.5s-0.1,0.3-0.1,0.4s0,0.2,0,0.3l0,0.5
		c0,0.1-0.1,0.2-0.1,0.3s-0.2,0.1-0.3,0.1c-0.2,0-0.3-0.1-0.4-0.2s-0.1-0.3-0.1-0.6c0,0,0-0.1,0-0.2s0-0.2,0-0.3s0-0.2,0-0.4
		s0-0.3,0-0.4s0-0.2,0-0.3s0-0.1,0-0.2c0-0.2,0-0.5,0-0.7s0-0.5,0.1-0.7s0-0.5,0.1-0.7s0.1-0.5,0.1-0.8s0.1-0.6,0.1-0.8
		s0.1-0.5,0.1-0.8s0.1-0.5,0.1-0.7s0.1-0.5,0.2-0.7c0,0,0-0.1,0-0.2s0.1-0.2,0.1-0.2s0.1-0.1,0.1-0.2s0.1-0.1,0.1-0.1
		c0,0,0.1,0,0.1,0s0.1,0,0.1,0s0.1,0,0.1,0s0.1,0,0.1,0.1s0.1,0.1,0.1,0.1s0,0.1,0,0.1s0,0.1,0,0.1s0,0.1,0,0.1c0,0.1,0,0.2-0.1,0.3
		s-0.1,0.4-0.1,0.6c-0.1,0.4-0.2,0.9-0.3,1.3s-0.2,0.9-0.2,1.4c0,0.2,0,0.3-0.1,0.5s0,0.4-0.1,0.6s0,0.4,0,0.6s0,0.4,0,0.6
		c0.1-0.2,0.2-0.4,0.4-0.6s0.3-0.5,0.5-0.7s0.4-0.4,0.6-0.6s0.4-0.3,0.6-0.5c0.4-0.3,0.8-0.5,1.2-0.5c0.2,0,0.4,0,0.6,0.2
		s0.4,0.3,0.5,0.4s0.3,0.4,0.3,0.6s0.1,0.4,0.1,0.7c0,0.1-0.1,0.4-0.2,0.8c-0.1,0.2-0.1,0.3-0.2,0.4s-0.1,0.2-0.1,0.3
		c0.1-0.1,0.3-0.2,0.5-0.3s0.3-0.2,0.5-0.3s0.3-0.2,0.5-0.3s0.3-0.2,0.5-0.3c0,0,0.1,0,0.1-0.1s0.2-0.1,0.3-0.2s0.2-0.2,0.3-0.2
		s0.2-0.1,0.3-0.2c0.2-0.1,0.3-0.2,0.3-0.2c0.1,0,0.1,0,0.1,0.1S158.1,405.7,158.1,405.7z"/>
	<path class="st0" d="M163,404.8c0,0.1,0,0.1,0,0.2s0,0.2,0,0.3c0,0.1,0,0.2,0,0.3s0,0.2,0,0.4s0,0.2,0,0.3s0,0.2,0,0.2
		c0,0.5-0.1,1.1-0.2,1.6s-0.2,1.1-0.3,1.6c-0.2,0.8-0.5,1.6-0.9,2.2c-0.4,0.6-0.9,0.9-1.7,0.9c-0.5,0-0.9-0.1-1.4-0.3
		c-0.5-0.2-0.9-0.4-1.2-0.8c-0.2-0.2-0.3-0.4-0.3-0.5c0-0.1,0-0.2,0.1-0.3c0.1-0.1,0.1-0.2,0.2-0.2c0,0,0.1,0,0.1,0.1
		c0.1,0.2,0.3,0.3,0.4,0.4c0.5,0.5,1.2,0.7,2,0.7c0.3,0,0.6-0.2,0.9-0.5c0.1-0.2,0.2-0.3,0.3-0.5s0.2-0.4,0.3-0.6s0.1-0.4,0.2-0.6
		s0.1-0.4,0.2-0.6c0-0.2,0.1-0.3,0.1-0.5s0-0.2,0-0.2c0-0.2,0-0.3,0-0.5s0-0.3,0-0.5c-0.1,0.1-0.3,0.2-0.7,0.4
		c-0.2,0.1-0.4,0.2-0.5,0.3s-0.3,0.2-0.4,0.3c-0.3,0.2-0.5,0.3-0.9,0.4c-0.3,0.1-0.6,0.2-0.8,0.2c-0.4,0-0.7-0.1-0.8-0.4
		s-0.3-0.6-0.3-1c0-0.3,0-0.6,0.1-0.9c0-0.2,0.1-0.3,0.1-0.5s0.1-0.3,0.1-0.4s0.1-0.3,0.1-0.5s0.1-0.4,0.2-0.6
		c0-0.1,0.1-0.2,0.1-0.3s0.1-0.2,0.2-0.2s0.1-0.1,0.2-0.1s0.2,0,0.3,0c0.1,0,0.2,0.1,0.3,0.2c0.1,0.1,0.1,0.2,0.1,0.4
		c0,0.1,0,0.1-0.1,0.2c0,0,0,0.1-0.1,0.1s-0.1,0.1-0.1,0.2s-0.1,0.2-0.1,0.2s-0.1,0.1-0.1,0.1c0,0.1-0.1,0.2-0.1,0.2s0,0.1-0.1,0.2
		c0,0,0,0.1-0.1,0.2s0,0.1-0.1,0.2c-0.1,0.2-0.1,0.3-0.1,0.5s0,0.3,0,0.4s0,0.3,0.1,0.6c0.1,0.2,0.2,0.3,0.3,0.3
		c0.3,0,0.8-0.1,1.2-0.3c0.5-0.2,0.9-0.5,1.3-0.8s0.6-0.7,0.7-1c0,0,0-0.1,0-0.2s0-0.2,0-0.3s0-0.2,0-0.4s0-0.2,0-0.4s0-0.2,0-0.3
		s0-0.2,0-0.2c0.1-0.4,0.3-0.5,0.5-0.5c0.2,0,0.3,0.1,0.4,0.2C162.9,404.3,163,404.5,163,404.8z"/>
	<path class="st0" d="M175.5,402.6c0,0.1,0,0.1,0,0.2s0,0.1,0,0.2s0,0.1-0.1,0.2s-0.1,0.1-0.1,0.2c-0.1,0.1-0.3,0.2-0.5,0.2
		c0-0.3,0-0.5-0.1-0.7c0-0.1-0.1-0.2-0.2-0.2s-0.2-0.1-0.3-0.1s-0.2-0.1-0.3-0.1s-0.2,0-0.3,0c-0.2,0-0.4,0-0.5,0s-0.3,0-0.5,0
		s-0.3,0.1-0.5,0.1s-0.3,0.1-0.5,0.2c-0.1,0.1-0.3,0.1-0.4,0.2s-0.3,0.2-0.4,0.3s-0.2,0.2-0.3,0.3s-0.2,0.3-0.2,0.4
		c0,0.1,0,0.2,0.1,0.4s0.2,0.3,0.3,0.4s0.3,0.3,0.4,0.4s0.3,0.2,0.5,0.2c0,0,0.1,0,0.2,0.1s0.2,0.1,0.4,0.1s0.3,0.1,0.4,0.1
		s0.2,0.1,0.2,0.1c0.9,0.2,1.5,0.5,2,0.8s0.6,0.7,0.6,1.1c0,0.1,0,0.3-0.1,0.4s-0.1,0.3-0.2,0.4s-0.2,0.3-0.3,0.4s-0.2,0.2-0.3,0.3
		c-0.1,0.1-0.2,0.2-0.4,0.3s-0.3,0.2-0.5,0.3s-0.3,0.2-0.5,0.3s-0.4,0.1-0.5,0.2c-0.2,0.1-0.4,0.1-0.6,0.2s-0.4,0.1-0.6,0.1
		s-0.4,0.1-0.5,0.1s-0.3,0-0.5,0c-0.1,0-0.2,0-0.4,0s-0.3-0.1-0.5-0.1s-0.3-0.1-0.4-0.2s-0.2-0.1-0.2-0.2c0-0.1,0-0.1,0-0.2
		s0-0.1,0.1-0.2s0.1-0.1,0.1-0.2s0.1-0.1,0.1-0.1c0.1,0,0.2,0,0.2,0s0.2,0.1,0.3,0.1s0.3,0.1,0.4,0.1s0.4,0,0.6,0
		c0.2,0,0.5,0,0.7-0.1s0.5-0.1,0.7-0.2s0.5-0.2,0.7-0.3s0.4-0.2,0.6-0.3c0.1-0.1,0.2-0.1,0.3-0.2s0.2-0.2,0.3-0.2s0.2-0.2,0.2-0.3
		s0.1-0.2,0.1-0.3c0-0.1-0.1-0.3-0.3-0.4c-0.2-0.1-0.4-0.2-0.7-0.3s-0.4-0.1-0.6-0.2c-0.2-0.1-0.5-0.1-0.7-0.2s-0.6-0.2-0.9-0.3
		c-0.5-0.2-1-0.5-1.3-0.9s-0.6-0.9-0.6-1.4c0-0.3,0.1-0.5,0.2-0.7s0.4-0.5,0.7-0.7s0.6-0.4,1-0.5s0.7-0.3,1.1-0.4
		c0.1,0,0.2,0,0.3-0.1s0.2,0,0.3,0s0.2,0,0.3,0s0.2,0,0.3,0c0.1,0,0.2,0,0.4,0s0.3,0,0.4,0.1s0.3,0.1,0.4,0.1s0.2,0.1,0.3,0.1
		c0.2,0.1,0.4,0.2,0.5,0.4S175.5,402.4,175.5,402.6z"/>
	<path class="st0" d="M183.9,404.8c0,0.1,0,0.3-0.1,0.3s-0.2,0.1-0.3,0.2c-0.1,0.1-0.3,0.1-0.4,0.2s-0.3,0.1-0.5,0.1
		s-0.3,0.1-0.5,0.1s-0.3,0-0.5,0.1c-0.2,0-0.3,0-0.5,0s-0.4,0-0.5,0s-0.3,0-0.5,0.1s-0.3,0.1-0.4,0.1c-0.1,0.4-0.2,0.7-0.3,1
		s-0.2,0.6-0.2,1c0,0.1,0,0.2-0.1,0.3s0,0.3-0.1,0.5s0,0.3-0.1,0.5s0,0.2,0,0.3c0,0.2,0,0.3,0.1,0.4s0.1,0.1,0.2,0.2
		s0.1,0.1,0.2,0.1s0.1,0.1,0.1,0.2c0,0.1,0,0.1-0.1,0.2s-0.1,0.1-0.2,0.1s-0.2,0.1-0.2,0.1s-0.2,0-0.2,0c-0.1,0-0.2,0-0.3-0.1
		s-0.2-0.1-0.2-0.2s-0.1-0.2-0.1-0.3s-0.1-0.3-0.1-0.4c0-0.2,0-0.4,0-0.6s0.1-0.4,0.1-0.6s0.1-0.4,0.1-0.7s0.1-0.4,0.1-0.7
		c0-0.1,0-0.2,0.1-0.3s0-0.2,0.1-0.3s0-0.2,0-0.2s0-0.1,0-0.1c0-0.1,0-0.1-0.1-0.1s-0.1,0-0.2,0c0,0-0.1,0-0.2,0s-0.2,0-0.3,0
		s-0.2,0-0.3,0s-0.2,0-0.2,0c-0.1,0-0.3,0-0.4,0s-0.2,0-0.2-0.1s-0.1-0.1-0.1-0.2s0-0.2,0-0.3c0-0.1,0-0.1,0.1-0.1s0.1-0.1,0.2-0.1
		s0.1,0,0.2,0s0.2,0,0.2,0c0.1,0,0.1,0,0.2,0s0.2,0,0.4,0s0.2,0,0.4,0s0.2,0,0.2,0c0,0,0.1,0,0.1,0s0.1,0,0.1,0s0.1,0,0.1-0.1
		s0.1-0.1,0.1-0.2c0-0.1,0.1-0.3,0.1-0.4s0.1-0.3,0.1-0.5s0.1-0.3,0.1-0.5s0.1-0.3,0.1-0.4c0-0.1,0.1-0.2,0.1-0.4s0-0.3,0.1-0.4
		s0-0.2,0.1-0.4s0.1-0.2,0.1-0.3c0.1-0.2,0.2-0.3,0.4-0.3c0.3,0,0.4,0.2,0.4,0.5c0,0.2,0,0.4-0.1,0.7c-0.2,0.6-0.3,1.1-0.4,1.5
		s-0.1,0.6-0.1,0.8c0,0.1,0.1,0.2,0.2,0.2c0.2,0,0.3,0,0.5,0s0.3,0,0.5,0s0.3,0,0.5,0s0.4,0,0.6-0.1c0.2,0,0.3,0,0.4-0.1
		s0.3-0.1,0.4-0.1s0.2,0,0.3-0.1s0.2,0,0.2,0c0,0,0.1,0,0.1,0s0.1,0,0.1,0s0.1,0,0.1,0S183.9,404.8,183.9,404.8z"/>
	<path class="st0" d="M189.4,406c0,0.1,0,0.2-0.1,0.3c-0.2,0.3-0.4,0.6-0.7,0.9s-0.5,0.6-0.8,0.8s-0.6,0.5-0.9,0.7s-0.6,0.4-0.9,0.6
		s-0.6,0.3-0.9,0.4s-0.6,0.1-0.9,0.1c-0.6,0-1.1-0.2-1.5-0.5s-0.5-0.9-0.5-1.6c0-0.6,0.1-1.2,0.3-1.8s0.5-1.1,1-1.7
		c0.1-0.1,0.2-0.2,0.3-0.3s0.2-0.2,0.3-0.2s0.2-0.1,0.4-0.2s0.3-0.1,0.4-0.1c0,0,0.1,0,0.1,0s0.1,0,0.2,0s0.1,0,0.2,0.1
		s0.1,0.1,0.1,0.1c0.1,0.1,0.2,0.3,0.3,0.4s0.1,0.3,0.1,0.4c0,0.2,0,0.4-0.1,0.5s-0.1,0.4-0.2,0.5s-0.3,0.4-0.5,0.6
		s-0.4,0.4-0.7,0.6c-0.2,0.1-0.4,0.3-0.6,0.5s-0.5,0.3-0.7,0.5c0,0.4,0.1,0.7,0.3,0.9s0.5,0.3,0.9,0.3c0.2,0,0.4,0,0.7-0.1
		s0.4-0.1,0.7-0.2s0.4-0.2,0.6-0.3s0.4-0.2,0.6-0.4c0.3-0.2,0.6-0.5,0.9-0.7s0.5-0.5,0.8-0.8l0.3-0.3c0.2-0.2,0.3-0.3,0.4-0.3
		C189.4,405.8,189.4,405.9,189.4,406z M185,404.8c0-0.1,0-0.1,0-0.2s0-0.1-0.1-0.1s-0.1-0.1-0.1-0.1s-0.1,0-0.1,0
		c-0.2,0-0.4,0.1-0.6,0.4s-0.4,0.6-0.6,1c0,0.1-0.1,0.2-0.1,0.3s-0.1,0.2-0.1,0.3s-0.1,0.2-0.1,0.3s0,0.2-0.1,0.3
		c0.2-0.2,0.4-0.3,0.6-0.4s0.3-0.3,0.5-0.4c0.1-0.1,0.2-0.2,0.3-0.3s0.2-0.2,0.3-0.3s0.1-0.2,0.2-0.3S185,404.9,185,404.8z"/>
	<path class="st0" d="M197,405.4c0,0.1,0,0.1,0,0.1s-0.1,0.1-0.1,0.1s-0.1,0.1-0.1,0.1s-0.1,0.1-0.1,0.1c-0.1,0.1-0.3,0.2-0.4,0.3
		s-0.3,0.2-0.5,0.2s-0.3,0.1-0.5,0.2s-0.3,0.1-0.5,0.1c-0.1,0-0.2,0-0.3,0s-0.3,0-0.4-0.1s-0.3-0.1-0.4-0.1s-0.2-0.1-0.3-0.1
		c0,0,0,0.1-0.1,0.2s-0.1,0.2-0.2,0.4s-0.1,0.3-0.2,0.5s-0.2,0.4-0.3,0.6c-0.2,0.4-0.4,0.8-0.6,1.2s-0.3,0.7-0.5,0.9
		c-0.1,0.1-0.1,0.2-0.2,0.3s-0.1,0.2-0.2,0.2s-0.1,0.1-0.2,0.1s-0.1,0-0.1,0c-0.1,0-0.2,0-0.2-0.1s-0.2-0.1-0.2-0.2c0,0,0-0.1,0-0.1
		s0-0.1,0-0.1c0-0.2-0.1-0.4-0.2-0.7s-0.3-0.7-0.5-1.2c-0.1-0.2-0.2-0.5-0.3-0.7s-0.2-0.5-0.3-0.7s-0.1-0.5-0.2-0.7
		s-0.1-0.4-0.1-0.5c0-0.1,0-0.2,0-0.3s0.1-0.2,0.1-0.3s0.1-0.2,0.2-0.2s0.2-0.1,0.3-0.1c0.2,0,0.3,0,0.4,0.1s0.2,0.2,0.2,0.4
		c0,0.1,0,0.1,0,0.2s0,0.1,0,0.2s0,0.1,0,0.2s0,0.1,0,0.2s0,0.1,0,0.3s0,0.3,0.1,0.4s0.1,0.3,0.1,0.5s0.1,0.3,0.2,0.5
		c0.1,0.1,0.1,0.3,0.2,0.5s0.2,0.4,0.2,0.5s0.1,0.3,0.2,0.4s0.1,0.2,0.1,0.2c0,0,0.1,0,0.1-0.1s0.1-0.2,0.2-0.3s0.1-0.3,0.2-0.4
		s0.2-0.3,0.2-0.5s0.1-0.4,0.2-0.5s0.1-0.3,0.2-0.5c0-0.1,0.1-0.2,0.1-0.4s0.1-0.2,0.1-0.3s0.1-0.2,0.1-0.3s0.1-0.2,0.1-0.3
		c0.1-0.1,0.1-0.2,0.2-0.2s0.2-0.1,0.3-0.1c0.1,0,0.1,0,0.2,0s0.1,0.1,0.1,0.1s0.1,0.1,0.1,0.1s0.1,0.1,0.1,0.1c0,0,0.1,0,0.2,0.1
		s0.2,0.1,0.2,0.1s0.2,0.1,0.3,0.1s0.2,0,0.3,0c0.2,0,0.3,0,0.5,0s0.3-0.1,0.4-0.1s0.2-0.1,0.3-0.1s0.2-0.1,0.3-0.1
		c0.2-0.1,0.3-0.1,0.4-0.1s0.2-0.1,0.3-0.1C196.9,405.3,197,405.3,197,405.4z"/>
	<path class="st0" d="M203.8,405.1c0,0.1,0,0.1,0,0.2s-0.1,0.1-0.1,0.2s-0.1,0.1-0.2,0.2s-0.1,0.1-0.2,0.1c-0.1,0.1-0.3,0.2-0.6,0.2
		s-0.6,0.1-0.9,0.1c-0.3,0-0.6,0-0.9-0.1s-0.6-0.2-0.9-0.4c0.1,0.1,0.1,0.3,0.2,0.4s0,0.3,0,0.4c0,0.3-0.1,0.6-0.2,1
		c-0.2,0.4-0.3,0.7-0.6,1s-0.5,0.6-0.8,0.8c-0.2,0.1-0.3,0.2-0.5,0.3s-0.4,0.2-0.6,0.2s-0.4,0.1-0.6,0.1s-0.4,0-0.7,0
		c-0.2,0-0.3,0-0.4-0.1s-0.3-0.2-0.4-0.4s-0.2-0.3-0.3-0.5s-0.1-0.3-0.1-0.4c0-0.3,0-0.6,0.1-0.9s0.2-0.6,0.3-0.8s0.3-0.5,0.5-0.8
		s0.4-0.5,0.6-0.8c0.1-0.1,0.3-0.3,0.4-0.4s0.3-0.3,0.5-0.4s0.3-0.2,0.5-0.3s0.3-0.1,0.5-0.1c0.1,0,0.2,0,0.3,0.1s0.2,0.1,0.3,0.1
		s0.2,0.1,0.2,0.2s0.2,0.2,0.3,0.3c0,0,0.1,0.1,0.3,0.2s0.3,0.1,0.6,0.2s0.4,0.1,0.7,0.2s0.5,0.1,0.7,0.1s0.4,0,0.5,0s0.3,0,0.5-0.1
		s0.3-0.1,0.5-0.1s0.3-0.1,0.5-0.2C203.7,405,203.8,405,203.8,405.1z M199.4,406.5c0-0.1,0-0.2,0-0.4s-0.1-0.3-0.1-0.4
		s-0.1-0.2-0.2-0.3s-0.2-0.1-0.3-0.1c-0.2-0.1-0.3-0.1-0.4-0.2s-0.2-0.1-0.3-0.1c0,0-0.1,0-0.2,0s-0.1,0.1-0.2,0.1s-0.1,0.1-0.2,0.2
		s-0.1,0.1-0.2,0.2c-0.1,0.2-0.2,0.3-0.3,0.4s-0.2,0.2-0.3,0.4s-0.2,0.3-0.3,0.4s-0.2,0.3-0.2,0.5c0,0.1-0.1,0.2-0.1,0.3
		s-0.1,0.2-0.1,0.3s0,0.2,0,0.3s0,0.2,0,0.3c0,0.1,0,0.1,0.1,0.2s0.1,0.1,0.1,0.2s0.1,0.1,0.2,0.2s0.1,0.1,0.2,0.1
		c0.2,0,0.4,0,0.5,0s0.3,0,0.4-0.1s0.2-0.1,0.4-0.2s0.3-0.2,0.4-0.3c0.1-0.1,0.2-0.1,0.2-0.2s0.2-0.2,0.2-0.2s0.1-0.2,0.2-0.3
		s0.1-0.2,0.2-0.3c0-0.1,0.1-0.1,0.1-0.2s0-0.2,0.1-0.3s0-0.2,0-0.2S199.4,406.5,199.4,406.5z"/>
</g>
</svg>
